<svg id="visual" viewBox="0 0 960 540" width="960" height="540" xmlns="http://www.w3.org/2000/svg" xmlns:xlink="http://www.w3.org/1999/xlink" version="1.1"><rect x="0" y="0" width="960" height="540" fill="#140021"></rect><path d="M0 373L80 373L80 369L160 369L160 359L240 359L240 408L320 408L320 361L400 361L400 387L480 387L480 391L560 391L560 404L640 404L640 367L720 367L720 378L800 378L800 387L880 387L880 361L960 361L960 408L960 541L960 541L880 541L880 541L800 541L800 541L720 541L720 541L640 541L640 541L560 541L560 541L480 541L480 541L400 541L400 541L320 541L320 541L240 541L240 541L160 541L160 541L80 541L80 541L0 541Z" fill="#9900ff"></path><path d="M0 440L80 440L80 445L160 445L160 412L240 412L240 436L320 436L320 404L400 404L400 447L480 447L480 437L560 437L560 440L640 440L640 419L720 419L720 439L800 439L800 445L880 445L880 428L960 428L960 404L960 541L960 541L880 541L880 541L800 541L800 541L720 541L720 541L640 541L640 541L560 541L560 541L480 541L480 541L400 541L400 541L320 541L320 541L240 541L240 541L160 541L160 541L80 541L80 541L0 541Z" fill="#8200d9"></path><path d="M0 454L80 454L80 452L160 452L160 458L240 458L240 462L320 462L320 466L400 466L400 436L480 436L480 481L560 481L560 453L640 453L640 478L720 478L720 459L800 459L800 471L880 471L880 438L960 438L960 475L960 541L960 541L880 541L880 541L800 541L800 541L720 541L720 541L640 541L640 541L560 541L560 541L480 541L480 541L400 541L400 541L320 541L320 541L240 541L240 541L160 541L160 541L80 541L80 541L0 541Z" fill="#6c00b4"></path><path d="M0 502L80 502L80 508L160 508L160 499L240 499L240 476L320 476L320 476L400 476L400 487L480 487L480 493L560 493L560 479L640 479L640 494L720 494L720 502L800 502L800 494L880 494L880 478L960 478L960 488L960 541L960 541L880 541L880 541L800 541L800 541L720 541L720 541L640 541L640 541L560 541L560 541L480 541L480 541L400 541L400 541L320 541L320 541L240 541L240 541L160 541L160 541L80 541L80 541L0 541Z" fill="#560090"></path></svg>